<?xml version="1.0" encoding="utf-8"?>
<!-- Generator: Adobe Illustrator 27.0.1, SVG Export Plug-In . SVG Version: 6.00 Build 0)  -->
<svg version="1.1" id="Calque_1" xmlns="http://www.w3.org/2000/svg" xmlns:xlink="http://www.w3.org/1999/xlink" x="0px" y="0px"
	 viewBox="0 0 42.1 15.1" style="enable-background:new 0 0 42.1 15.1;" xml:space="preserve">
<style type="text/css">
	.st0{fill:url(#Shape2_00000044161043123426797210000013997132706660215700_);}
	.st1{fill:url(#SVGID_1_);}
</style>
<g>
	<path id="Shape1" d="M12.5,10.5c0,0.2-0.1,0.4-0.3,0.5L7,14C6.9,14,6.7,14,6.5,14l-5.2-3c-0.1-0.1-0.3-0.3-0.3-0.5v-6
		c0-0.2,0.1-0.4,0.3-0.5l5.2-3C6.7,1,6.9,1,7,1.1l5.2,3c0.1,0.1,0.3,0.3,0.3,0.5V10.5z M41.1,5h-4.6v1.1h1.7v4.7h1.3V6.1h1.6L41.1,5
		z M20.1,5h-4.6v1.1h1.7v4.7h1.3V6.1h1.7L20.1,5z M33.5,4.8c-1.5,0-2.3,0.9-2.3,2.3v3.7h1.3V7.1c0-0.6,0.3-1,1-1c0.6,0,1,0.5,1,1
		v3.8h1.3V7.1C35.8,5.7,34.9,4.8,33.5,4.8z M28.6,5v5.8h1.3V5H28.6z M24.2,7.3l0,0.3l1.2,3.3H26L27.6,5h-1.3l-0.8,3.1l0,0.3
		l-0.1-0.3L24.4,5H24L23,8.1l-0.1,0.3l0-0.3L22.1,5h-1.3l1.6,5.8H23l1.2-3.3L24.2,7.3"/>
	
		<radialGradient id="Shape2_00000171679801419887697930000014339852383049564310_" cx="1.2903" cy="27.4583" r="1.1329" gradientTransform="matrix(5.4784 0 0 -6.184 -0.6826 175.096)" gradientUnits="userSpaceOnUse">
		<stop  offset="0" style="stop-color:#FFCC00"/>
		<stop  offset="9.157000e-02" style="stop-color:#FFC800"/>
		<stop  offset="0.1739" style="stop-color:#FFBD00"/>
		<stop  offset="0.2528" style="stop-color:#FFAB00"/>
		<stop  offset="0.3295" style="stop-color:#FF9100"/>
		<stop  offset="0.4046" style="stop-color:#FF7000"/>
		<stop  offset="0.4786" style="stop-color:#FF4700"/>
		<stop  offset="0.5503" style="stop-color:#FF1800"/>
		<stop  offset="0.5822" style="stop-color:#FF0000"/>
		<stop  offset="1" style="stop-color:#FF0000"/>
	</radialGradient>
	<path id="Shape2" style="fill:url(#Shape2_00000171679801419887697930000014339852383049564310_);" d="M9.5,7.6l-1.3,2L7.4,8.5
		l0.8-1.2c0.1-0.2,0.5-0.8,0.1-1.6c-0.3-0.6-0.9-1-1.5-1S5.7,5,5.3,5.7C5,6.5,5.3,7.1,5.4,7.3c0,0,0.4,0.6,0.8,1.2l0.6,0.9l0.9,1.4
		c0,0,0.1,0.2,0.4,0.2c0.2,0,0.4-0.2,0.4-0.2l2.1-3.1L9.5,7.6L9.5,7.6L9.5,7.6z M6.8,7.6c0,0-0.4-0.5-0.6-0.9c-0.2-0.4,0-1,0.6-1
		c0.6,0,0.8,0.6,0.6,1C7.2,7.1,6.8,7.6,6.8,7.6z"/>
	
		<radialGradient id="SVGID_1_" cx="1.0901" cy="27.4007" r="1.3917" gradientTransform="matrix(4.089 0 0 -6.1911 -1.812 175.2925)" gradientUnits="userSpaceOnUse">
		<stop  offset="0" style="stop-color:#00B4E6"/>
		<stop  offset="0.201" style="stop-color:#00B0E3"/>
		<stop  offset="0.3898" style="stop-color:#01A5DB"/>
		<stop  offset="0.5737" style="stop-color:#0292CD"/>
		<stop  offset="0.7546" style="stop-color:#0377BA"/>
		<stop  offset="0.9316" style="stop-color:#0455A1"/>
		<stop  offset="1" style="stop-color:#054696"/>
	</radialGradient>
	<path class="st1" d="M5.5,9.5L4.2,7.6c0,0-0.4-0.5-0.6-0.9c-0.2-0.4,0-1,0.6-1c0.1,0,0.1,0,0.2,0l0.5-0.9C4.7,4.8,4.4,4.8,4.2,4.8
		C3.7,4.8,3,5,2.7,5.7c-0.4,0.8,0,1.4,0.1,1.6l2.3,3.4c0,0,0.2,0.2,0.4,0.2s0.4-0.2,0.4-0.2l0.7-1.1L6,8.8L5.5,9.5L5.5,9.5z"/>
</g>
</svg>
